<?xml version="1.0" encoding="UTF-8"?>
<svg width="64px" height="64px" viewBox="0 0 64 64" version="1.1" xmlns="http://www.w3.org/2000/svg" xmlns:xlink="http://www.w3.org/1999/xlink">
    <!-- Generator: Sketch 52.5 (67469) - http://www.bohemiancoding.com/sketch -->
    <title>mute</title>
    <desc>Created with Sketch.</desc>
    <g id="mute" stroke="none" stroke-width="1" fill="none" fill-rule="evenodd">
        <g id="icon-mute">
            <path d="M46.754386,32.4803855 C46.754386,26.6830058 43.4331228,21.704465 38.6140351,19.2807018 L38.6140351,26.519238 L46.5915789,34.5438596 C46.6892632,33.8887885 46.754386,33.2009638 46.754386,32.4803855 Z M54.60401,32.3362935 C54.60401,35.3715985 53.964411,38.2131606 52.8770927,40.8609798 L57.7060652,45.7368421 C59.8167419,41.7328228 61,37.1798653 61,32.3362935 C61,18.5159687 51.437995,6.9559774 38.6140351,4.01754386 L38.6140351,10.6693824 C47.8562406,13.4463636 54.60401,22.1002118 54.60401,32.3362935 Z M7.09222222,3 L3,7.09222222 L18.2411111,22.3333333 L3,22.3333333 L3,41.6666667 L15.8888889,41.6666667 L32,57.7777778 L32,36.0922222 L45.6944444,49.7866667 C43.5355556,51.4622222 41.1188889,52.7833333 38.4444444,53.5888889 L38.4444444,60.2266667 C42.8911111,59.2277778 46.9188889,57.1655556 50.3344444,54.3944444 L56.9077778,61 L61,56.9077778 L32,27.9077778 L7.09222222,3 Z M32.5087719,6.05263158 L25.3859649,12.6666667 L32.5087719,19.2807018 L32.5087719,6.05263158 Z" id="Shape" fill="#F9F9F9" fill-rule="nonzero"></path>
            <polygon id="Path" points="0 0 64 0 64 64 0 64"></polygon>
        </g>
    </g>
</svg>