<?xml version="1.0" encoding="UTF-8"?>
<svg width="64px" height="64px" viewBox="0 0 64 64" version="1.1" xmlns="http://www.w3.org/2000/svg" xmlns:xlink="http://www.w3.org/1999/xlink">
    <!-- Generator: Sketch 52.5 (67469) - http://www.bohemiancoding.com/sketch -->
    <title>unmute</title>
    <desc>Created with Sketch.</desc>
    <g id="unmute" stroke="none" stroke-width="1" fill="none" fill-rule="evenodd">
        <g id="baseline-volume_up-24px">
            <path d="M3,22.9375 L3,42.0625 L15.8888889,42.0625 L32,58 L32,7 L15.8888889,22.9375 L3,22.9375 Z M46,31.515528 C46,26.0186335 42.736,21.2981366 38,19 L38,44 C42.736,41.7329193 46,37.0124224 46,31.515528 Z M38,4 L38,10.5769669 C47.4957143,13.322691 54.4285714,21.8791334 54.4285714,32 C54.4285714,42.1208666 47.4957143,50.677309 38,53.4230331 L38,60 C51.1757143,57.0946408 61,45.6647662 61,32 C61,18.3352338 51.1757143,6.90535918 38,4 Z" id="Shape" fill="#F9F9F9" fill-rule="nonzero"></path>
            <polygon id="Path" points="0 0 64 0 64 64 0 64"></polygon>
        </g>
    </g>
</svg>